:SAMPLES-PER-SECOND 30
:FULLY-SPECIFIED
:DEGREES
412
root  -36.8817 40.936 2.00856 -6.32005 -81.9444 12.8926
RightUpLeg  -18.4362 -9.27976 -5.83638
RightLeg  7.08988 -4.82874 4.24251
RightFoot  6.87639 0.494868 -2.79034
RightToes  0.000482159 0.542163 -0.142577
Spine  28.9349 1.85224 17.7144
Spine1  13.4693 8.84114 -6.74763
HEad  -2.16915 -29.5722 6.36188
LeftShoulder1  9.6947 -14.5349 -46.8966
LeftArm  -3.39325 15.6515 -27.0544
LeftForeArm  37.4871 -34.0597 -5.42829
LeftHand  -0.25398 0.0180481 5.50724
RightShoulder  5.98711 11.2501 34.6207
RightArm  -17.4986 46.9626 20.4287
RightForeArm  3.10346 5.97174 7.26418
RightHand  -19.1994 33.804 -52.9285
LeftUpLeg  -16.5336 -1.35066 -2.86712
LeftLeg  2.21311 3.05035 -3.38878
LeftFoot  8.81285 -1.32808 7.18474
LeftToes  1.06246e-005 4.65854e-005 -8.18502e-006
413
root  -36.9241 40.9386 2.00633 -6.58193 -82.0196 13.169
RightUpLeg  -18.4967 -9.32469 -5.83686
RightLeg  7.31484 -4.68605 4.27982
RightFoot  6.78367 0.510186 -2.9043
RightToes  0.000482159 0.542163 -0.142577
Spine  29.049 1.82428 17.7573
Spine1  13.4823 8.86999 -6.8099
HEad  -2.49611 -29.5092 7.37185
LeftShoulder1  9.68473 -14.5124 -46.9073
LeftArm  -3.27976 15.6712 -27.1628
LeftForeArm  37.6144 -34.4456 -5.51729
LeftHand  -0.25398 0.0180481 5.50724
RightShoulder  5.97742 11.2149 34.6518
RightArm  -17.2938 46.8685 20.5172
RightForeArm  2.85878 6.36156 7.33638
RightHand  -19.155 33.7199 -52.9234
LeftUpLeg  -16.54 -1.32959 -2.87075
LeftLeg  2.34246 3.14705 -3.37649
LeftFoot  8.69471 -1.32567 7.19169
LeftToes  1.06246e-005 4.65854e-005 -8.18502e-006
414
root  -36.9346 40.9332 2.03211 -6.87459 -82.1387 13.4442
RightUpLeg  -18.4889 -9.37863 -5.8899
RightLeg  7.40468 -4.60577 4.30191
RightFoot  6.6665 0.471235 -2.68369
RightToes  0.000482159 0.542163 -0.142577
Spine  29.1388 1.82939 17.7126
Spine1  13.4787 8.83144 -6.65119
HEad  -2.65554 -29.4045 7.64254
LeftShoulder1  9.72282 -14.5013 -47.1254
LeftArm  -3.29153 15.5574 -27.1494
LeftForeArm  37.7822 -35.153 -5.68559
LeftHand  -0.25398 0.0180481 5.50724
RightShoulder  5.9656 11.2697 34.424
RightArm  -17.2379 46.8289 20.6349
RightForeArm  2.66127 6.55338 7.35861
RightHand  -18.9997 33.5617 -52.7406
LeftUpLeg  -16.6286 -1.28092 -2.90914
LeftLeg  2.60671 3.27747 -3.38962
LeftFoot  8.5624 -1.34227 7.34086
LeftToes  1.06246e-005 4.65854e-005 -8.18502e-006
415
root  -36.922 40.9238 2.08516 -7.2561 -82.3657 13.8114
RightUpLeg  -18.5444 -9.39596 -5.9244
RightLeg  7.40095 -4.37635 4.30503
RightFoot  6.79341 0.457669 -2.57361
RightToes  0.000482159 0.542163 -0.142577
Spine  29.0966 1.88381 17.7487
Spine1  13.579 8.85817 -6.55342
HEad  -2.81529 -29.4368 6.9848
LeftShoulder1  9.75096 -14.5272 -47.1955
LeftArm  -3.49513 15.2536 -27.3064
LeftForeArm  38.0762 -35.9166 -5.86439
LeftHand  -0.25398 0.0180481 5.50724
RightShoulder  5.94523 11.2971 34.2136
RightArm  -17.2909 46.8867 20.5975
RightForeArm  3.14831 6.57443 7.33488
RightHand  -18.979 33.6384 -52.5979
LeftUpLeg  -16.7827 -1.18636 -2.97103
LeftLeg  2.92708 3.49433 -3.43245
LeftFoot  8.47386 -1.38605 7.62665
LeftToes  1.06246e-005 4.65854e-005 -8.18502e-006
416
root  -36.8878 40.9117 2.15679 -7.94696 -82.6486 14.4675
RightUpLeg  -18.7102 -9.40208 -5.95697
RightLeg  7.53292 -3.99632 4.27705
RightFoot  7.02927 0.487174 -2.71259
RightToes  0.000482159 0.542163 -0.142577
Spine  28.953 1.93313 17.8825
Spine1  13.798 8.97847 -6.71777
HEad  -3.1605 -29.3596 7.37038
LeftShoulder1  9.71461 -14.5788 -46.8786
LeftArm  -3.79995 14.826 -27.6152
LeftForeArm  38.5259 -36.7888 -6.06675
LeftHand  -0.25398 0.0180481 5.50724
RightShoulder  5.91554 11.2038 34.2667
RightArm  -17.2743 47.0633 20.42
RightForeArm  4.25885 6.52609 7.31417
RightHand  -18.8257 33.657 -52.2026
LeftUpLeg  -16.9046 -1.1245 -3.07682
LeftLeg  3.17295 3.81796 -3.4585
LeftFoot  8.44124 -1.42561 7.86632
LeftToes  1.06246e-005 4.65854e-005 -8.18502e-006
417
root  -36.8293 40.8973 2.2435 -8.71766 -82.895 15.1476
RightUpLeg  -18.8185 -9.42494 -6.04316
RightLeg  7.67501 -3.7167 4.23157
RightFoot  7.13613 0.485726 -2.68318
RightToes  0.000482159 0.542163 -0.142577
Spine  28.8627 1.92266 17.9315
Spine1  13.8953 9.03773 -6.91439
HEad  -3.45159 -29.0451 8.87038
LeftShoulder1  9.65654 -14.5996 -46.5361
LeftArm  -4.18876 14.4642 -27.7178
LeftForeArm  38.9891 -37.9256 -6.3448
LeftHand  -0.25398 0.0180481 5.50724
RightShoulder  5.89908 11.1069 34.4189
RightArm  -17.0781 47.0032 20.4455
RightForeArm  5.10044 6.78564 7.31813
RightHand  -18.1052 33.0494 -51.1625
LeftUpLeg  -16.9371 -1.13954 -3.20514
LeftLeg  3.29186 4.15772 -3.46737
LeftFoot  8.441 -1.457 8.04547
LeftToes  1.06246e-005 4.65854e-005 -8.18502e-006
418
root  -36.7493 40.8816 2.35052 -9.23052 -83.141 15.5047
RightUpLeg  -18.7699 -9.40514 -6.14527
RightLeg  7.59715 -3.53314 4.1677
RightFoot  7.27998 0.445808 -2.41307
RightToes  0.000482159 0.542163 -0.142577
Spine  28.8962 1.88549 17.7442
Spine1  13.6667 8.91847 -6.83162
HEad  -3.25646 -28.7392 9.36094
LeftShoulder1  9.62087 -14.5345 -46.5316
LeftArm  -4.7741 14.3234 -27.4944
LeftForeArm  39.3287 -39.2972 -6.70479
LeftHand  -0.25398 0.0180481 5.50724
RightShoulder  5.9212 11.1498 34.4514
RightArm  -16.6751 46.2054 20.9858
RightForeArm  4.85554 7.85949 7.30925
RightHand  -17.1637 32.0393 -50.0083
LeftUpLeg  -16.9074 -1.12679 -3.3083
LeftLeg  3.35191 4.43544 -3.52017
LeftFoot  8.46571 -1.50303 8.29654
LeftToes  1.06246e-005 4.65854e-005 -8.18502e-006
419
root  -36.6528 40.8641 2.48083 -9.57185 -83.4573 15.6178
RightUpLeg  -18.6485 -9.28494 -6.19914
RightLeg  7.40268 -3.21953 4.05064
RightFoot  7.65303 0.42777 -2.24113
RightToes  0.000482159 0.542163 -0.142577
Spine  28.9119 1.88018 17.3511
Spine1  13.2897 8.67299 -6.50212
HEad  -2.61626 -28.4645 8.34502
LeftShoulder1  9.56202 -14.3889 -46.6256
LeftArm  -5.56646 14.3737 -27.265
LeftForeArm  39.6414 -40.7433 -7.10305
LeftHand  -0.25398 0.0180481 5.50724
RightShoulder  5.96861 11.2599 34.4704
RightArm  -15.5895 44.5089 22.0306
RightForeArm  3.14113 10.1264 7.17422
RightHand  -16.7409 31.4563 -49.6193
LeftUpLeg  -16.851 -1.00084 -3.38928
LeftLeg  3.45859 4.6929 -3.62598
LeftFoot  8.50352 -1.56025 8.60434
LeftToes  1.06246e-005 4.65854e-005 -8.18502e-006
420
root  -36.5394 40.843 2.62998 -9.95555 -83.867 15.6808
RightUpLeg  -18.519 -9.14326 -6.22397
RightLeg  7.29262 -2.78325 3.91214
RightFoot  8.02845 0.419333 -2.13251
RightToes  0.000482159 0.542163 -0.142577
Spine  28.7471 1.924 16.8359
Spine1  13.1062 8.41408 -6.12983
HEad  -1.95157 -28.0534 7.17036
LeftShoulder1  9.44375 -14.2163 -46.4939
LeftArm  -6.37597 14.4559 -27.2303
LeftForeArm  40.1061 -42.1472 -7.49739
LeftHand  -0.25398 0.0180481 5.50724
RightShoulder  6.00621 11.2756 34.6793
RightArm  -13.0188 42.0469 23.3378
RightForeArm  -0.144356 13.6658 6.70077
RightHand  -16.9005 31.4964 -49.9859
LeftUpLeg  -16.7431 -0.761519 -3.45426
LeftLeg  3.62534 4.98414 -3.76241
LeftFoot  8.51207 -1.60276 8.84169
LeftToes  1.06246e-005 4.65854e-005 -8.18502e-006
421
root  -36.4044 40.8158 2.79135 -10.4175 -84.4647 15.7167
RightUpLeg  -18.3406 -9.04082 -6.23917
RightLeg  7.21785 -2.36082 3.85783
RightFoot  8.24176 0.36659 -1.79506
RightToes  0.000482159 0.542163 -0.142577
Spine  28.4793 2.02448 16.1778
Spine1  13.1497 8.20194 -5.75594
HEad  -1.47911 -27.3587 6.60823
LeftShoulder1  9.32266 -14.0575 -46.3078
LeftArm  -7.05021 14.4955 -27.1824
LeftForeArm  40.5988 -43.394 -7.85792
LeftHand  -0.25398 0.0180481 5.50724
RightShoulder  6.04008 11.2128 35.077
RightArm  -9.39791 38.9431 24.6198
RightForeArm  -3.76471 17.8996 5.84852
RightHand  -17.1274 31.6233 -50.4209
LeftUpLeg  -16.5581 -0.295875 -3.41507
LeftLeg  3.82782 5.26541 -4.0139
LeftFoot  8.43972 -1.62216 8.9876
LeftToes  1.06246e-005 4.65854e-005 -8.18502e-006
422
root  -36.2456 40.783 2.95796 -10.7625 -85.4156 15.5181
RightUpLeg  -18.062 -8.8348 -6.12273
RightLeg  6.9994 -1.69765 3.87567
RightFoot  8.6076 0.295822 -1.34542
RightToes  0.000482159 0.542163 -0.142577
Spine  28.2898 2.18233 15.3274
Spine1  13.1762 8.03743 -5.36677
HEad  -1.0877 -26.3863 6.07075
LeftShoulder1  9.24177 -13.9123 -46.288
LeftArm  -7.63937 14.5577 -26.9686
LeftForeArm  40.7226 -44.2772 -8.13708
LeftHand  -0.25398 0.0180481 5.50724
RightShoulder  6.11349 11.2207 35.5446
RightArm  -6.69887 35.433 25.7321
RightForeArm  -5.22573 21.484 5.22763
RightHand  -17.0936 31.5255 -50.4533
LeftUpLeg  -16.3191 0.632928 -3.14265
LeftLeg  4.13549 5.45636 -4.48552
LeftFoot  8.27895 -1.62032 9.05743
LeftToes  1.06246e-005 4.65854e-005 -8.18502e-006
